# xmcd
#
# Track frame offsets:
#	150
#	23018
#	47334
#	71619
#	92103
#	113649
#	135244
#	157446
#	178576
#	201260
#
# Disc length: 3044 seconds
#
# Revision: 3
# Processed by: cddbd v1.5.2PL0 Copyright (c) Steve Scherf et al.
# Submitted via: Jack! The Knife 17 Overdose
#
DISCID=810be20a
DTITLE=Pooh - Amici Per Sempre
DYEAR=1996
DGENRE=Pop
TTITLE0=Amici Per Sempre
TTITLE1=La Donna Del Mio Amico
TTITLE2=Fammi Fermare Il Tempo
TTITLE3=Diritto D'amare
TTITLE4=Innamorati Sempre, Innamorati Mai
TTITLE5=Cercando Di Te
TTITLE6=Danza a Distanza
TTITLE7=Le Donne Mi Hanno Detto...
TTITLE8=Il Silenzio Della Colomba
TTITLE9=C'è Bisogno Di Un Piccolo Aiuto
EXTD=Pooh
EXTT0=Facchinetti, Negrini
EXTT1=Facchinetti, D'Orazio
EXTT2=Canzian, Negrini
EXTT3=Battaglia, Negrini
EXTT4=Facchinetti, D'Orazio
EXTT5=Canzian, D'Orazio
EXTT6=Battaglia, Negrini
EXTT7=Facchinetti, Negrini
EXTT8=Facchinetti, Negrini
EXTT9=Facchinetti, D'Orazio
PLAYORDER=
